ffprobe version n2.6.1 Copyright (c) 2007-2015 the FFmpeg developers
  built with gcc 4.8 (Ubuntu 4.8.2-19ubuntu1)
  configuration: --prefix=/opt/ffmpeg --extra-cflags=-I/opt/ffmpeg/include --extra-ldflags=-L/opt/ffmpeg/lib --extra-libs=-ldl --enable-gpl --enable-libass --enable-libfdk-aac --enable-libfreetype --enable-libmp3lame --enable-libtheora --enable-libvorbis --enable-libvpx --enable-libx264 --enable-libx265 --enable-nonfree
  libavutil      54. 20.100 / 54. 20.100
  libavcodec     56. 26.100 / 56. 26.100
  libavformat    56. 25.101 / 56. 25.101
  libavdevice    56.  4.100 / 56.  4.100
  libavfilter     5. 11.102 /  5. 11.102
  libswscale      3.  1.101 /  3.  1.101
  libswresample   1.  1.100 /  1.  1.100
  libpostproc    53.  3.100 / 53.  3.100
Input #0, matroska,webm, from '/media/flaviopontes/Gigante/Filmes/Anime/Gundam 00/[gg-BSS]_Gundam_00_S2_-_01_[44C8CD36].mkv':
  Metadata:
    title           : [gg-BSS] Gundam 00 Second Season - 01: Angel's Advent
    encoder         : libebml v0.7.8 + libmatroska v0.8.1
    creation_time   : 2008-10-05 18:00:56
  Duration: 00:24:12.58, start: 0.000000, bitrate: 2260 kb/s
    Chapter #0:0: start 0.000000, end 129.755000
    Metadata:
      title           : Prologue
    Chapter #0:1: start 129.755000, end 706.311000
    Metadata:
      title           : Part One
    Chapter #0:2: start 706.311000, end 1260.259000
    Metadata:
      title           : Part Two
    Chapter #0:3: start 1260.259000, end 1351.308000
    Metadata:
      title           : "OP"
    Chapter #0:4: start 1351.308000, end 1436.101000
    Metadata:
      title           : lol not quite done
    Chapter #0:5: start 1436.101000, end 1452.576000
    Metadata:
      title           : Preview
    Stream #0:0(jpn): Video: h264 (High), yuv420p, 1280x720, SAR 1:1 DAR 16:9, 23.98 fps, 23.98 tbr, 1k tbn, 47.95 tbc (default)
    Metadata:
      title           : Gundam 00 Second Season - 01: Angel's Advent
    Stream #0:1(jpn): Audio: aac (LC), 48000 Hz, stereo, fltp (default)
    Metadata:
      title           : AAC 2.0
    Stream #0:2(eng): Subtitle: ass (default)
    Metadata:
      title           : Styled Subtitles
    Stream #0:3: Attachment: ttf
    Metadata:
      filename        : Commerce_Black_Condensed_SSi_Bold_Condensed.ttf
      mimetype        : application/x-truetype-font
    Stream #0:4: Attachment: ttf
    Metadata:
      filename        : Essai.ttf
      mimetype        : application/x-truetype-font
    Stream #0:5: Attachment: ttf
    Metadata:
      filename        : kochi-mincho-subst.ttf
      mimetype        : application/x-truetype-font
    Stream #0:6: Attachment: ttf
    Metadata:
      filename        : KozMinPro-Medium.ttf
      mimetype        : application/x-truetype-font
Unsupported codec with id 98304 for input stream 3
Unsupported codec with id 98304 for input stream 4
Unsupported codec with id 98304 for input stream 5
Unsupported codec with id 98304 for input stream 6
